<svg width="32" height="32" viewBox="0 0 32 32" fill="none" xmlns="http://www.w3.org/2000/svg">
<g opacity="0.9">
<path d="M2.74936 16.464C2.63824 16.1646 2.63824 15.8353 2.74936 15.536C3.83162 12.9118 5.66871 10.668 8.02772 9.08919C10.3867 7.51034 13.1614 6.66748 16 6.66748C18.8386 6.66748 21.6133 7.51034 23.9723 9.08919C26.3313 10.668 28.1684 12.9118 29.2507 15.536C29.3618 15.8353 29.3618 16.1646 29.2507 16.464C28.1684 19.0882 26.3313 21.3319 23.9723 22.9108C21.6133 24.4897 18.8386 25.3325 16 25.3325C13.1614 25.3325 10.3867 24.4897 8.02772 22.9108C5.66871 21.3319 3.83162 19.0882 2.74936 16.464Z" stroke="#7A7AFF" stroke-width="2" stroke-linecap="round" stroke-linejoin="round"/>
<path d="M16 20C18.2091 20 20 18.2091 20 16C20 13.7909 18.2091 12 16 12C13.7909 12 12 13.7909 12 16C12 18.2091 13.7909 20 16 20Z" stroke="#7A7AFF" stroke-width="2" stroke-linecap="round" stroke-linejoin="round"/>
</g>
</svg>
